<?xml version="1.0" standalone="no"?>
<!DOCTYPE svg PUBLIC "-//W3C//DTD SVG 20010904//EN"
 "http://www.w3.org/TR/2001/REC-SVG-20010904/DTD/svg10.dtd">
<svg version="1.0" xmlns="http://www.w3.org/2000/svg"
 width="730.000000pt" height="730.000000pt" viewBox="0 0 730.000000 730.000000"
 preserveAspectRatio="xMidYMid meet">

<g transform="translate(0.000000,730.000000) scale(0.100000,-0.100000)"
fill="#000000" stroke="none">
<path d="M3340 7240 c-1352 -122 -2512 -977 -3025 -2230 -168 -409 -251 -812
-262 -1265 -15 -625 105 -1165 382 -1715 119 -237 238 -422 412 -641 226 -284
606 -622 888 -790 27 -17 73 -44 100 -61 28 -17 115 -63 195 -104 423 -212
838 -329 1341 -375 195 -18 576 -6 784 25 157 23 364 67 475 100 155 46 210
65 335 114 436 170 847 435 1199 772 158 152 339 370 476 575 312 467 493 940
578 1510 24 166 26 205 26 495 0 291 -2 329 -27 498 -118 798 -462 1487 -1022
2047 -210 211 -476 418 -725 565 -95 56 -341 177 -455 223 -283 115 -537 184
-850 232 -227 34 -597 45 -825 25z m548 -1235 c506 -76 874 -378 986 -811 88
-340 -60 -681 -519 -1194 -299 -334 -418 -479 -488 -595 -40 -67 -77 -149 -77
-170 0 -8 23 -25 50 -39 142 -71 204 -141 243 -271 12 -43 13 -57 0 -105 -44
-174 -150 -283 -322 -334 -71 -21 -221 -21 -291 0 -166 49 -279 192 -326 415
-21 96 -12 171 37 325 71 226 201 444 499 839 267 354 348 489 386 635 46 181
-47 386 -199 436 -103 34 -252 -3 -284 -71 -16 -34 -16 -38 3 -93 24 -71 24
-196 0 -269 -20 -60 -81 -133 -140 -168 -100 -58 -317 -71 -439 -25 -86 32
-199 111 -255 178 -96 116 -138 241 -129 382 13 191 70 344 192 515 165 232
485 390 855 424 52 4 101 9 108 10 6 0 56 -6 110 -14z m-180 -3721 c191 -71
324 -261 324 -462 -1 -80 -32 -188 -73 -253 -37 -59 -133 -150 -185 -177 -146
-74 -323 -72 -467 6 -75 41 -178 155 -213 238 -26 63 -29 79 -29 189 0 110 3
126 30 190 54 130 213 261 344 286 68 12 215 3 269 -17z"/>
</g>
</svg>
